# xmcd
#
# Track frame offsets: 
#        150
#        16523
#        30167
#        47062
#        57331
#        74362
#        86040
#        100314
#        111946
#        124242
#        136112
#        151431
#        162998
#        179016
#        193977
#        206436
#        218219
#        229879
#        239929
#        252858
#        265697
#        278037
#        291719
#        304549
#
# Disc length: 4197 seconds
#
# Revision: 0
# Processed by: cddbd v1.5.2PL0 Copyright (c) Steve Scherf et al.
# Submitted via: ExactAudioCopy v1.0b3
#
DISCID=67106318
DTITLE=Righteous Brothers - Best Selection
DYEAR=2009
DGENRE=Pop
TTITLE0=アンチェインド・メロディ
TTITLE1=ソウル・アンド・インスピレーション
TTITLE2=ふられた気持
TTITLE3=イン・ザ・ミッドナイト・アワー
TTITLE4=ジャスト・ワンス・イン・マイ・ライフ
TTITLE5=ホールド・オン
TTITLE6=ハーレム・シャッフル
TTITLE7=ゴー・アヘッド・アンド・クライ
TTITLE8=ラスト・ダンスは私と
TTITLE9=我が心のジョージア
TTITLE10=マイ・ガール
TTITLE11=ウィル・ユー・ラヴ・ミー・トゥモロー
TTITLE12=アイ・ビリーヴ
TTITLE13=降っても晴れても
TTITLE14=レット・イット・ビー・ミー
TTITLE15=陽のあたる島
TTITLE16=グレート・プリテンダー
TTITLE17=ドーヴァーの白い崖
TTITLE18=秘めたる恋
TTITLE19=オール・ザ・ウェイ
TTITLE20=そして今は
TTITLE21=やさしい貴方
TTITLE22=ひき潮
TTITLE23=ユール・ネヴァー・ウォーク・アローン
EXTD=
EXTT0=
EXTT1=
EXTT2=
EXTT3=
EXTT4=
EXTT5=
EXTT6=
EXTT7=
EXTT8=
EXTT9=
EXTT10=
EXTT11=
EXTT12=
EXTT13=
EXTT14=
EXTT15=
EXTT16=
EXTT17=
EXTT18=
EXTT19=
EXTT20=
EXTT21=
EXTT22=
EXTT23=
PLAYORDER=
